<?xml version="1.0" standalone="no"?>
<!DOCTYPE svg PUBLIC "-//W3C//DTD SVG 20010904//EN"
 "http://www.w3.org/TR/2001/REC-SVG-20010904/DTD/svg10.dtd">
<svg version="1.0" xmlns="http://www.w3.org/2000/svg"
 width="646.000000pt" height="646.000000pt" viewBox="0 0 646.000000 646.000000"
 preserveAspectRatio="xMidYMid meet">
<metadata>
Created by potrace 1.14, written by Peter Selinger 2001-2017
</metadata>
<g transform="translate(0.000000,646.000000) scale(0.100000,-0.100000)"
fill="#000000" stroke="none">
<path d="M4690 5940 c-35 -10 -111 -49 -132 -68 -10 -8 -18 -12 -18 -8 0 3
-19 -11 -41 -31 -23 -21 -55 -50 -72 -65 -16 -15 -34 -25 -40 -21 -5 3 -7 1
-4 -4 4 -6 -10 -23 -31 -39 -20 -15 -40 -33 -44 -38 -4 -6 -8 -8 -8 -5 0 4
-30 -22 -67 -58 -101 -97 -164 -148 -177 -145 -6 2 -8 0 -4 -4 4 -4 -39 -43
-95 -87 -56 -44 -117 -94 -134 -110 -18 -17 -33 -28 -33 -25 0 2 -18 -12 -40
-32 l-40 -37 -246 0 c-136 -1 -279 -4 -318 -7 -39 -3 -116 -8 -171 -11 -663
-38 -883 -89 -1352 -316 -78 -38 -145 -73 -148 -78 -3 -6 -20 -4 -41 5 -54 23
-106 8 -364 -99 -129 -54 -270 -127 -246 -127 5 0 3 -7 -4 -15 -7 -8 -16 -12
-21 -10 -4 3 -6 -4 -4 -16 2 -12 -2 -28 -10 -36 -9 -8 -13 -19 -10 -24 4 -5
-1 -6 -9 -3 -11 4 -16 0 -16 -11 0 -10 5 -13 12 -9 7 4 8 3 4 -4 -4 -7 -14
-12 -22 -12 -8 0 -12 -5 -9 -10 4 -6 11 -7 17 -4 7 4 8 2 4 -4 -4 -6 -14 -8
-24 -5 -14 6 -15 4 -4 -9 15 -19 0 -34 -20 -22 -8 5 -7 0 2 -11 14 -17 13 -18
-3 -12 -10 4 -16 3 -12 -2 8 -14 -6 -43 -20 -38 -6 3 -12 -1 -12 -9 0 -7 5
-10 11 -6 6 3 4 -5 -6 -18 -9 -14 -24 -24 -33 -23 -12 1 -14 -2 -7 -9 8 -8 5
-16 -7 -27 -9 -9 -11 -12 -4 -7 8 5 13 5 13 -1 0 -29 -360 -180 -528 -221
l-103 -26 1 -378 c1 -239 5 -378 11 -378 6 0 7 5 3 12 -5 7 -3 8 5 3 9 -5 10
-10 2 -18 -7 -7 -7 -16 1 -30 10 -20 11 -20 25 -1 14 18 15 18 8 -4 -8 -29 19
-64 43 -54 15 5 16 4 2 -13 -8 -10 -10 -16 -4 -12 6 3 23 8 37 11 l27 5 -21
-32 c-12 -18 -16 -27 -9 -20 7 6 20 9 29 6 12 -4 13 -3 3 5 -11 8 -11 10 1 15
10 4 14 -1 13 -16 -1 -12 -7 -21 -14 -20 -7 2 -12 -2 -12 -7 0 -13 6 -13 30 0
12 7 17 17 14 28 -5 14 -4 14 4 3 7 -10 7 -21 1 -34 -10 -18 -10 -18 18 -1
l28 18 -19 -22 c-20 -23 -15 -27 28 -22 10 1 15 -3 12 -8 -3 -5 4 -12 16 -15
16 -4 18 -3 9 6 -6 6 -11 16 -11 21 0 6 11 -6 25 -27 14 -20 28 -37 31 -37 3
0 3 4 0 8 -3 5 10 8 29 8 18 -1 33 -3 33 -6 -1 -18 3 -30 12 -30 5 0 7 7 4 15
-4 8 -1 15 7 15 7 0 9 -3 6 -7 -9 -8 13 -34 23 -28 4 2 6 -9 4 -26 -2 -17 0
-27 6 -24 12 8 4 -33 -11 -51 -10 -12 -8 -13 7 -7 17 6 18 5 4 -12 -9 -11 -10
-16 -2 -11 7 4 12 1 12 -9 0 -9 -4 -13 -10 -10 -5 3 -10 1 -10 -4 0 -6 4 -11
10 -11 5 0 9 -3 9 -7 -3 -20 2 -33 12 -33 8 0 8 4 0 13 -8 10 -7 14 3 14 10 0
13 -9 10 -25 -7 -35 -13 -44 -27 -35 -6 3 -2 -7 10 -23 11 -16 18 -36 16 -44
-4 -12 -3 -12 5 -1 6 8 12 9 16 3 5 -9 -109 -57 -154 -66 -8 -1 -33 -8 -56
-14 -44 -13 -126 -29 -187 -38 -21 -3 -46 -7 -55 -9 -9 -2 -27 -4 -40 -4 -22
-1 -23 -4 -20 -80 1 -48 6 -77 12 -74 5 4 7 -1 3 -11 -4 -10 -3 -15 3 -11 14
9 12 33 -2 37 -9 3 -9 6 0 12 7 4 12 2 12 -4 0 -6 4 -8 10 -5 5 3 7 0 4 -9 -5
-13 23 -37 43 -36 4 1 -3 7 -16 14 l-24 14 24 12 c13 8 25 13 27 12 1 -1 3 -2
5 -1 18 5 36 6 33 1 -2 -4 3 -14 12 -21 14 -13 15 -13 10 5 -4 16 0 20 18 20
12 0 20 -4 17 -9 -3 -5 0 -7 8 -5 8 3 13 14 13 26 -1 12 2 19 7 17 4 -3 6 -18
4 -35 -4 -27 -3 -28 14 -12 10 10 14 22 10 28 -5 6 -3 11 6 11 8 0 12 -4 9 -9
-3 -4 2 -8 11 -8 10 0 13 5 9 12 -5 7 -3 8 6 3 10 -6 12 -3 7 11 -7 18 -7 18
7 0 14 -18 42 -14 31 5 -4 5 -1 9 5 9 7 0 10 -7 6 -15 -3 -8 -1 -15 5 -15 6 0
7 -5 4 -10 -4 -6 -15 -8 -26 -5 -10 4 -19 3 -19 -2 0 -13 37 -13 48 0 10 12
12 18 12 37 0 6 4 10 8 10 13 0 11 -33 -2 -49 -8 -11 -8 -13 1 -8 6 4 14 3 18
-2 3 -5 14 -8 25 -6 12 2 18 0 15 -6 -4 -5 -11 -6 -17 -3 -7 5 -9 1 -5 -9 5
-13 1 -17 -16 -18 -16 0 -18 -2 -7 -7 9 -4 15 -13 14 -19 -1 -7 -2 -17 -3 -23
-2 -16 -18 -12 -18 5 0 8 5 11 10 8 6 -3 7 -1 3 5 -4 6 -14 8 -22 5 -9 -3 -12
-9 -7 -12 5 -3 8 -13 7 -21 0 -8 -2 -23 -2 -33 -1 -10 -7 -15 -12 -12 -8 5 -8
11 0 20 8 9 8 15 0 20 -6 4 -9 1 -8 -7 2 -7 -3 -12 -10 -10 -9 2 -10 -2 0 -17
14 -23 -6 -81 -28 -81 -8 0 -14 -5 -14 -11 0 -5 4 -7 10 -4 6 4 7 -1 3 -11 -6
-16 -7 -15 -20 2 -14 20 -18 7 -4 -15 12 -19 -8 -51 -27 -43 -11 4 -13 2 -6
-9 16 -26 12 -36 -12 -33 -13 1 -22 -2 -18 -7 3 -5 9 -7 14 -4 4 3 10 -2 13
-10 4 -9 1 -12 -9 -8 -11 4 -15 0 -14 -13 4 -30 1 -44 -9 -44 -5 0 -8 8 -6 17
1 10 0 12 -2 5 -3 -7 -10 -9 -16 -5 -7 3 -3 -3 7 -15 11 -12 15 -22 10 -22 -5
0 -2 -5 6 -10 11 -7 11 -10 2 -10 -7 0 -10 -5 -6 -12 4 -7 3 -8 -4 -4 -7 4
-12 2 -12 -4 0 -6 -4 -9 -9 -5 -5 3 -13 0 -17 -6 -4 -8 -3 -9 4 -5 7 4 12 2
12 -5 0 -10 3 -10 12 -1 7 7 17 12 22 12 6 0 0 -7 -12 -16 -12 -8 -28 -12 -35
-8 -8 6 -8 3 1 -9 12 -13 11 -19 -1 -37 -7 -11 -17 -17 -22 -12 -5 4 -5 1 -1
-6 4 -7 12 -10 17 -7 5 4 9 -3 9 -15 0 -13 4 -18 11 -15 6 4 5 -2 -3 -14 -7
-12 -17 -21 -22 -21 -5 0 -1 -9 8 -19 11 -12 13 -21 7 -25 -5 -4 -8 -15 -6
-25 2 -14 -2 -17 -21 -15 -13 1 -22 -2 -18 -7 3 -5 9 -7 14 -4 13 8 38 -5 36
-20 -1 -7 -8 -20 -16 -30 -10 -12 -10 -15 -1 -13 8 2 15 -4 16 -13 2 -9 -3
-16 -11 -16 -7 0 -11 4 -9 8 3 4 -2 10 -10 13 -12 4 -13 2 -7 -12 5 -9 7 -24
4 -32 -5 -13 -3 -13 12 -1 9 8 19 11 23 7 3 -3 1 -6 -5 -6 -7 0 -12 -5 -12
-11 0 -5 6 -7 12 -3 7 4 10 4 6 -1 -4 -4 -3 -14 4 -22 8 -10 8 -17 -1 -26 -10
-9 -11 -8 -5 8 6 16 5 18 -7 7 -7 -6 -18 -12 -24 -12 -5 0 -3 5 5 10 9 6 10
10 3 10 -18 0 -26 -19 -11 -25 8 -3 14 -15 15 -25 1 -13 -3 -18 -10 -14 -8 5
-8 3 1 -7 6 -7 12 -21 12 -31 0 -10 4 -18 9 -18 5 0 8 7 7 16 0 9 5 18 12 20
7 1 8 0 2 -3 -16 -7 -12 -21 8 -26 16 -4 16 -5 -1 -6 -10 0 -15 -6 -12 -12 4
-6 1 -10 -6 -8 -8 1 -54 1 -102 0 l-88 -1 2 -65 c1 -36 6 -65 11 -65 4 0 8 5
8 12 0 6 3 8 6 5 4 -4 1 -13 -6 -22 -8 -9 -8 -15 -2 -15 6 0 13 4 17 10 3 5
13 7 23 4 15 -5 15 -4 -1 9 -15 13 -15 15 -2 20 8 4 14 3 14 -1 -1 -4 0 -10 1
-14 4 -14 7 -28 9 -40 1 -10 3 -10 10 0 4 8 7 24 5 37 -2 21 0 23 17 12 13 -8
15 -13 6 -19 -9 -5 -7 -12 7 -25 18 -16 19 -16 7 0 -12 15 -10 18 18 23 17 4
31 11 31 17 0 6 3 7 6 4 4 -4 1 -14 -7 -24 -12 -15 -12 -16 2 -11 9 4 21 2 27
-4 6 -6 12 -6 16 1 4 6 12 11 17 11 6 0 7 -5 3 -12 -4 -6 -3 -8 4 -5 5 4 8 17
5 30 -4 22 -4 22 9 1 7 -12 19 -19 27 -16 9 3 11 0 6 -8 -6 -10 -4 -11 6 -4 8
4 19 9 24 10 6 1 17 3 25 5 10 3 14 -2 12 -16 -2 -16 -1 -17 7 -5 7 10 6 21
-4 37 -11 16 -12 24 -3 29 6 4 8 3 4 -4 -3 -6 -1 -14 6 -19 20 -12 38 -12 38
-1 0 6 11 -1 25 -16 28 -30 34 -23 10 11 -11 16 -12 24 -4 29 7 4 9 3 6 -3 -7
-11 11 -31 28 -31 6 0 18 4 29 10 14 8 17 7 11 -2 -5 -8 -3 -11 6 -8 8 3 14
10 14 16 0 5 4 14 9 19 5 4 6 3 2 -4 -4 -7 2 -17 14 -23 14 -7 19 -17 16 -27
-5 -12 -3 -13 7 -5 10 9 17 8 25 0 7 -7 12 -9 12 -6 0 4 -7 13 -15 21 -12 13
-11 15 9 13 13 0 22 -6 19 -12 -2 -6 3 -16 11 -23 12 -10 14 -7 10 21 l-4 33
20 -35 c12 -19 19 -27 16 -17 -3 9 -1 17 4 17 5 0 6 8 3 17 -6 15 -5 16 9 3
12 -12 13 -18 4 -30 -10 -13 -9 -13 7 -1 14 11 15 17 5 30 -7 9 -8 13 -4 9 5
-4 16 -2 25 5 14 10 14 10 4 -4 -7 -9 -10 -19 -6 -22 3 -4 0 -15 -8 -24 -11
-15 -11 -16 1 -6 8 7 22 13 32 13 10 0 18 4 18 10 0 5 -7 7 -15 4 -8 -4 -15
-1 -15 6 0 6 4 8 10 5 5 -3 10 -1 10 6 0 7 6 4 14 -6 8 -11 12 -24 9 -29 -4
-5 -1 -6 6 -2 6 4 9 11 6 15 -2 5 2 17 11 27 14 18 14 18 4 -4 -10 -20 -9 -23
7 -20 12 2 18 -3 16 -16 -1 -12 2 -15 9 -8 7 7 6 18 -2 33 -10 19 -10 22 0 12
7 -6 19 -9 26 -6 8 3 14 0 14 -7 0 -6 -5 -8 -10 -5 -6 3 -10 1 -10 -5 0 -7 7
-9 16 -6 9 3 17 6 20 6 2 0 1 8 -2 17 -4 10 4 5 15 -12 l22 -30 -6 30 c-3 17
-2 24 1 17 3 -6 10 -9 16 -6 18 11 68 12 68 2 0 -6 7 -8 15 -4 8 3 14 2 14 -2
-1 -4 -1 -14 0 -22 1 -13 3 -13 10 -1 13 20 62 25 74 9 6 -9 7 -8 3 6 -5 14
-2 17 9 12 9 -3 13 -2 10 3 -3 5 0 13 6 17 8 4 9 3 5 -4 -4 -7 -3 -12 3 -12 5
0 11 5 13 12 3 7 7 5 11 -6 4 -9 3 -15 -2 -11 -5 3 -12 2 -15 -3 -2 -4 15 -8
39 -7 42 0 55 13 25 27 -12 5 -11 7 3 7 12 1 16 6 11 14 -4 6 -3 9 1 4 5 -4
10 -17 12 -30 2 -12 9 -26 15 -32 8 -7 9 -6 4 3 -4 6 -2 12 3 12 6 0 11 5 11
11 0 5 -5 7 -12 3 -7 -5 -8 -3 -3 6 6 10 11 10 20 -4 12 -15 13 -15 19 0 5 13
9 14 21 4 8 -7 12 -17 9 -22 -4 -6 3 -5 15 1 11 7 21 17 21 23 0 6 -6 6 -18
-3 -9 -7 -14 -9 -10 -5 4 5 2 16 -5 24 -10 13 -9 14 3 7 8 -5 21 -11 27 -12
41 -9 49 -10 58 -4 17 10 35 10 29 0 -3 -5 -10 -7 -15 -3 -6 3 -5 -3 3 -15 7
-12 17 -21 22 -21 4 0 4 6 -2 13 -9 10 0 13 39 15 31 1 49 -3 49 -10 0 -6 3
-9 6 -6 3 4 0 17 -7 30 l-12 23 23 -20 c13 -11 20 -14 16 -7 -4 7 -2 12 5 12
6 0 9 -8 6 -20 -3 -14 -1 -18 6 -13 12 8 17 9 37 12 6 0 10 6 10 12 0 8 -4 9
-13 0 -11 -8 -16 -5 -26 17 -11 26 -11 26 5 7 12 -15 18 -16 21 -7 4 10 8 9
17 -4 10 -13 17 -14 33 -6 11 6 23 8 27 5 3 -3 6 0 6 8 1 10 3 9 11 -4 5 -9
15 -17 21 -17 7 0 7 5 -1 14 -8 10 -9 16 -1 21 6 4 9 1 8 -7 -2 -7 3 -12 10
-10 8 1 11 -1 9 -5 -3 -5 28 -8 69 -8 41 0 74 3 74 7 0 4 -9 5 -20 3 -11 -2
-20 0 -20 4 0 5 11 9 25 9 23 0 30 -9 26 -31 -1 -4 8 -2 19 5 11 7 20 16 20
20 0 5 5 8 11 8 5 0 8 -4 5 -8 -2 -4 4 -13 15 -20 10 -7 19 -8 19 -3 0 5 -6
12 -12 15 -10 5 -10 7 0 12 6 3 9 11 6 16 -4 7 -2 8 5 4 6 -4 9 -11 6 -16 -3
-5 0 -12 6 -16 8 -4 9 -3 5 4 -4 7 -2 12 4 12 6 0 13 -7 16 -15 6 -13 8 -14
18 -1 14 18 62 33 52 17 -5 -7 -2 -10 6 -9 7 2 12 -3 10 -10 -1 -8 2 -11 8 -7
8 5 7 11 -1 21 -9 11 -9 14 0 14 7 0 10 4 6 10 -3 5 -12 7 -20 3 -8 -3 -15 1
-15 8 0 7 3 9 7 6 3 -4 13 -1 21 6 11 8 14 8 9 0 -4 -6 -3 -14 3 -18 6 -4 8
-10 5 -15 -3 -4 5 -6 17 -4 13 2 17 2 11 -2 -7 -3 -13 -10 -13 -16 0 -7 5 -6
14 1 8 6 18 11 22 10 20 -3 34 2 34 12 0 8 -6 7 -17 -2 -16 -13 -17 -12 -5 3
10 13 10 17 0 21 -7 3 -3 4 9 4 12 -1 20 -4 17 -9 -2 -4 6 -12 18 -19 20 -11
22 -11 10 3 -10 13 -10 18 -1 24 7 4 9 3 6 -3 -4 -6 0 -14 9 -17 14 -5 14 -9
3 -24 -13 -15 -12 -16 3 -4 18 15 19 32 3 45 -6 5 -3 7 8 3 10 -3 17 0 17 7 0
7 5 4 11 -6 8 -14 14 -15 24 -7 10 8 15 8 20 -1 6 -8 10 -7 16 2 7 11 9 11 9
1 0 -7 5 -10 10 -7 6 4 8 10 5 15 -3 5 0 12 7 16 7 4 10 4 6 -1 -4 -4 -3 -14
3 -22 9 -10 15 -10 25 -2 11 9 14 8 14 0 0 -7 5 -9 12 -5 7 4 8 3 4 -4 -4 -6
-13 -9 -21 -5 -8 3 -15 1 -15 -4 0 -5 14 -9 30 -9 19 0 29 4 26 11 -4 13 29
13 41 1 5 -4 2 -6 -6 -4 -9 2 -16 -6 -18 -17 l-3 -20 9 20 c5 11 10 16 10 11
1 -5 11 -1 22 10 22 19 22 19 10 -3 -8 -16 -8 -24 1 -29 7 -4 8 -3 4 5 -4 6 0
14 8 17 9 3 13 11 9 18 -4 7 -2 7 8 -1 12 -10 18 -10 28 0 11 10 11 8 2 -10
-7 -15 -8 -24 -1 -28 6 -4 9 -1 8 7 -2 7 3 12 10 10 8 -1 11 2 7 8 -3 5 -1 10
6 10 7 0 9 -9 6 -22 -6 -22 -5 -22 8 -5 7 11 11 26 8 35 -4 14 -3 15 5 2 6 -8
8 -19 6 -25 -3 -5 3 0 14 13 15 16 22 18 26 10 5 -10 7 -10 12 0 5 10 9 9 19
-5 12 -15 16 -16 27 -4 8 8 8 11 1 7 -6 -3 -14 -2 -17 3 -4 5 2 8 11 6 10 -1
17 -8 16 -14 -2 -6 4 -11 13 -11 8 0 12 5 8 11 -3 6 7 4 23 -5 24 -12 30 -12
30 -1 0 7 -6 11 -12 9 -7 -3 -18 3 -26 13 -12 16 -12 17 1 6 20 -15 56 -10 52
8 -1 8 6 4 17 -9 11 -12 23 -22 28 -21 22 4 34 -2 27 -13 -5 -9 -2 -9 9 1 21
16 21 17 2 19 -8 1 -22 3 -30 4 -8 1 -16 7 -19 15 -4 11 -1 11 15 3 15 -9 24
-8 35 1 12 10 15 10 12 -2 -2 -8 3 -13 11 -11 12 3 12 0 2 -12 -10 -12 -9 -20
4 -40 20 -31 30 -35 15 -6 -7 12 -7 20 -1 20 5 0 12 -9 16 -19 3 -10 15 -21
26 -24 12 -3 18 -10 14 -17 -3 -6 -1 -9 6 -8 7 2 13 -2 14 -9 0 -6 4 -15 9
-20 5 -4 6 -3 2 4 -8 15 30 37 50 29 9 -3 13 -10 10 -15 -4 -5 -1 -11 6 -13 7
-3 5 -7 -6 -11 -12 -5 -15 -3 -10 6 5 8 2 7 -9 -2 -23 -18 -22 -20 13 -16 16
2 32 0 35 -6 4 -5 10 -7 15 -4 5 3 12 1 15 -5 4 -6 1 -9 -6 -8 -8 2 -14 -9
-15 -27 -1 -16 0 -24 3 -17 4 10 13 6 34 -14 16 -15 29 -22 29 -16 0 7 5 12
11 12 6 0 9 -7 6 -15 -8 -20 9 -28 33 -15 19 10 26 4 21 -23 -1 -5 2 -6 7 -3
4 3 7 19 6 35 -1 17 2 34 7 37 5 3 8 0 7 -8 -3 -13 1 -13 60 -4 13 2 26 -3 32
-13 8 -14 9 -14 10 2 0 9 4 17 10 17 5 0 6 -7 3 -17 -5 -12 -3 -14 7 -8 10 6
12 4 7 -11 -6 -16 -5 -17 6 -4 14 17 31 23 90 29 4 1 7 6 7 12 0 8 -4 8 -13 1
-10 -8 -16 -5 -26 11 -11 18 -11 20 0 10 15 -15 33 -18 25 -5 -6 11 34 9 51
-1 7 -4 18 1 26 13 13 19 15 19 28 3 9 -11 10 -14 1 -9 -14 8 -48 -21 -37 -32
3 -4 11 1 16 11 6 9 15 15 20 12 5 -4 6 -11 3 -17 -4 -6 -2 -8 4 -4 10 6 9 36
-2 54 -3 5 1 9 9 9 8 0 12 -4 9 -9 -3 -4 -1 -15 4 -24 8 -14 10 -12 10 10 0
33 16 54 27 35 5 -8 4 -10 -3 -5 -8 5 -10 2 -6 -9 6 -14 8 -14 19 2 10 14 11
21 2 32 -10 12 -9 14 6 8 12 -4 17 -1 17 9 0 10 6 14 15 10 8 -3 14 -2 13 2
-1 4 6 28 16 55 16 40 21 45 34 35 13 -11 14 -10 4 8 -13 24 -7 35 14 27 8 -3
14 0 14 7 0 6 4 9 9 6 5 -4 11 -1 13 6 3 7 7 5 11 -6 4 -9 3 -15 -1 -12 -4 2
-14 0 -22 -6 -13 -8 -12 -9 1 -5 9 3 22 0 28 -6 10 -9 12 -9 9 2 -2 10 7 15
30 16 17 1 32 -1 32 -6 0 -4 8 -6 18 -4 9 1 23 -2 30 -8 10 -8 12 -7 10 4 -2
9 4 13 15 11 9 -2 20 4 23 13 4 9 13 14 20 11 8 -3 14 0 14 6 0 7 7 3 15 -8
13 -17 16 -17 26 -4 9 13 10 12 5 -2 -3 -10 -1 -20 5 -23 5 -4 7 -11 4 -16 -3
-5 1 -6 10 -3 14 6 14 8 -2 20 -16 12 -16 13 11 14 16 0 35 -8 42 -17 13 -17
14 -17 7 1 -5 15 -3 17 7 11 10 -6 12 -4 7 8 -4 12 -2 14 10 10 12 -5 14 -3 8
7 -5 9 -4 11 4 6 9 -6 9 -11 0 -22 -6 -8 -9 -17 -5 -21 3 -3 6 -1 6 5 0 7 7
12 16 12 14 0 15 -2 3 -17 -13 -16 -12 -17 4 -4 12 10 14 17 7 26 -8 10 -3 12
20 10 23 -2 30 1 26 11 -8 21 2 17 13 -5 9 -16 7 -18 -19 -16 -20 2 -27 -1
-23 -11 6 -17 19 -18 28 -4 5 8 11 7 21 -1 14 -11 15 -10 18 11 0 6 4 9 7 8 3
-2 13 3 22 10 14 12 15 10 12 -15 -2 -15 -2 -22 1 -15 3 6 10 9 15 6 6 -3 8 5
5 18 -3 19 1 24 18 25 18 2 19 1 4 -8 -19 -11 -14 -34 9 -43 13 -5 14 -4 4 8
-9 11 -9 16 0 22 7 4 9 3 6 -3 -4 -6 5 -15 19 -22 14 -6 23 -15 19 -20 -3 -5
0 -13 6 -17 7 -4 9 -3 5 4 -3 6 -2 13 3 17 5 3 14 -3 20 -12 6 -10 11 -12 11
-6 0 7 3 12 8 10 4 -1 8 1 10 6 5 16 1 19 -13 7 -12 -10 -15 -10 -15 0 0 7 -7
10 -15 6 -8 -3 -15 -1 -15 5 0 6 10 9 23 8 12 -2 28 0 35 5 8 5 12 3 10 -6 -2
-8 6 -13 18 -12 16 1 20 -3 17 -17 -3 -11 -9 -19 -14 -19 -5 0 -6 8 -3 18 5
14 4 15 -5 2 -7 -10 -7 -18 0 -25 7 -7 17 -2 31 15 12 14 19 18 16 10 -2 -8 5
-22 16 -32 19 -15 20 -17 4 -23 -10 -4 -18 -12 -18 -17 0 -6 7 -7 16 -4 12 5
14 1 8 -16 -6 -21 -5 -22 11 -8 14 12 19 12 23 2 3 -10 7 -10 20 0 15 11 15
11 5 -3 -10 -12 -9 -18 5 -30 9 -8 21 -15 27 -16 5 -1 11 -7 13 -15 2 -9 0 -8
-7 2 -7 10 -11 11 -11 3 0 -7 -1 -16 -2 -20 -2 -4 8 -8 22 -9 14 -1 30 -3 35
-4 24 -6 27 1 9 22 l-19 21 26 -17 c22 -14 28 -14 38 -3 6 8 9 16 6 19 -3 2 9
3 25 0 19 -3 27 -8 23 -16 -4 -7 -1 -6 9 1 8 7 18 9 22 5 4 -4 7 -2 6 3 -7 32
12 22 39 -20 12 -20 12 -20 6 1 -7 26 18 39 35 18 18 -20 35 -17 19 4 -12 15
-12 16 2 5 9 -7 20 -9 25 -5 4 4 2 -1 -5 -10 -17 -22 -25 -22 -45 -2 -9 8 -16
12 -16 7 0 -12 16 -35 24 -34 22 3 36 0 32 -7 -3 -5 1 -9 9 -9 8 0 12 4 9 8
-2 4 -1 9 3 12 5 2 2 2 -6 0 -12 -3 -12 -1 0 13 8 10 15 12 17 5 2 -6 7 -9 11
-7 4 3 8 -1 8 -9 0 -8 -4 -12 -9 -9 -4 3 -8 1 -8 -5 0 -5 9 -9 20 -8 11 1 19
6 16 12 -2 7 6 10 24 7 15 -2 38 1 50 8 15 8 20 8 16 1 -4 -6 -2 -11 4 -11 7
0 9 -9 5 -22 -3 -13 -3 -18 2 -12 4 6 22 10 39 9 27 -1 31 2 29 21 -1 15 2 21
11 17 7 -2 10 -12 8 -21 -5 -14 -4 -14 6 1 6 9 15 15 20 12 4 -3 11 2 14 10 4
13 2 13 -14 5 -13 -7 -21 -7 -25 0 -4 6 -3 10 2 9 14 -4 47 14 66 35 25 28 31
60 19 96 -6 17 -7 30 -2 30 5 0 7 8 4 18 -5 14 -4 14 4 2 6 -8 9 -17 6 -21 -2
-4 3 -10 12 -13 21 -8 24 -8 24 5 0 5 -6 7 -12 3 -7 -4 -10 -4 -6 1 4 4 2 15
-5 24 -11 14 -10 15 8 1 11 -7 25 -20 32 -28 9 -11 16 -11 43 3 26 14 34 14
41 4 4 -7 5 -17 3 -21 -3 -4 0 -8 6 -8 6 0 8 10 4 24 -3 13 -1 27 5 30 7 5 8
1 5 -9 -9 -23 15 -48 32 -34 11 9 18 8 29 -1 8 -7 15 -8 15 -4 0 5 -9 15 -20
22 -11 7 -20 8 -20 4 0 -5 -6 -9 -14 -9 -8 0 -12 6 -9 14 3 7 9 10 14 7 5 -3
9 0 9 5 0 6 4 11 10 11 5 0 9 -6 7 -12 -1 -7 5 -11 13 -9 39 9 90 6 90 -5 0
-7 6 -14 13 -17 16 -6 47 11 47 25 0 6 -8 4 -19 -6 -17 -16 -19 -16 -25 0 -4
9 -4 19 -1 22 3 3 5 0 5 -6 0 -7 5 -12 11 -12 5 0 8 4 4 9 -7 12 26 7 53 -8
14 -8 24 -6 38 4 23 17 34 19 34 4 0 -5 -5 -7 -12 -3 -7 5 -8 3 -3 -6 5 -8 4
-11 -3 -6 -6 3 -14 1 -18 -5 -4 -8 -3 -9 4 -5 7 4 12 1 12 -6 0 -8 5 -6 11 5
6 9 15 15 20 11 5 -3 21 1 34 10 29 19 35 20 35 5 0 -5 -5 -7 -12 -3 -7 5 -8
3 -3 -6 5 -8 4 -11 -3 -6 -6 3 -14 1 -18 -5 -4 -8 -3 -9 4 -5 7 4 12 1 12 -6
0 -7 9 1 20 17 22 33 27 27 8 -8 -10 -20 -10 -21 5 -9 9 8 21 11 26 8 5 -4 13
-1 17 5 4 7 3 9 -4 5 -6 -3 -13 -2 -16 3 -4 5 -2 12 3 15 5 4 12 2 16 -4 4 -6
10 -8 15 -5 5 3 12 0 16 -6 5 -8 3 -9 -6 -4 -9 5 -11 4 -6 -3 4 -7 2 -12 -5
-12 -7 0 -9 -3 -6 -6 4 -4 13 -1 21 5 10 8 16 9 21 1 3 -5 12 -10 18 -10 7 0
6 4 -3 10 -15 9 -16 9 35 25 8 2 14 1 14 -3 -3 -19 3 -22 24 -10 23 13 72 12
98 -3 13 -6 16 -4 14 14 -2 16 3 23 15 23 10 0 16 -6 13 -13 -3 -7 -10 -10
-17 -6 -7 4 -7 1 1 -9 7 -8 9 -19 5 -24 -4 -4 9 4 29 18 34 25 49 27 49 6 0
-5 -5 -6 -12 -2 -7 5 -8 3 -4 -5 5 -7 11 -9 14 -6 10 10 11 66 2 60 -5 -3 -12
-1 -15 5 -4 6 -1 9 7 8 9 -2 14 11 16 40 2 25 -1 41 -6 38 -5 -3 -75 -8 -156
-11 l-147 -7 17 27 c11 17 22 24 33 20 12 -4 13 -3 5 5 -8 8 -3 25 15 63 22
44 26 64 25 142 -1 101 -12 146 -86 350 -68 188 -84 223 -111 247 -14 12 -18
21 -10 24 8 4 5 20 -11 57 -21 47 -23 69 -24 222 -1 94 -4 180 -6 192 -3 16 0
23 10 23 9 0 12 -5 8 -12 -4 -6 -3 -8 4 -4 5 3 12 3 15 -1 2 -5 2 -2 0 6 -2 9
2 11 13 7 8 -3 18 -6 20 -6 3 0 2 -6 -2 -12 -4 -7 5 -2 21 12 21 19 27 21 22
8 -5 -15 -4 -16 14 -5 18 11 18 13 3 24 -15 11 -14 12 4 10 11 0 18 -5 15 -11
-4 -5 1 -7 10 -3 8 3 18 0 21 -8 3 -9 20 -13 51 -12 26 1 42 3 36 5 -6 2 -8 9
-5 14 5 7 2 8 -7 2 -8 -5 -24 -10 -36 -12 -16 -2 -21 2 -20 17 0 11 5 17 9 15
5 -3 6 -10 3 -15 -7 -10 31 -7 41 4 13 12 22 7 29 -14 6 -17 9 -18 16 -8 4 7
4 19 -2 25 -7 8 -6 15 2 20 7 4 9 3 6 -2 -3 -5 8 -17 25 -27 25 -14 29 -15 18
-2 -10 12 -10 15 3 15 8 0 18 -6 20 -12 4 -8 6 -7 6 4 1 9 -7 19 -16 21 -14 4
-13 5 4 6 12 0 26 -6 31 -15 6 -11 11 -13 16 -5 4 6 2 11 -4 11 -6 0 -8 5 -5
10 5 8 11 7 21 -1 9 -7 14 -8 13 -3 -4 21 2 28 12 14 8 -12 10 -12 7 -1 -2 8
-12 15 -21 17 -10 1 -14 -2 -11 -8 5 -7 2 -8 -6 -3 -7 4 -15 2 -20 -4 -5 -9
-10 -9 -18 1 -8 11 -6 14 9 16 43 4 49 6 49 15 0 6 5 5 13 -1 9 -8 13 -1 15
28 l2 38 -77 7 c-143 12 -214 34 -418 125 l-60 27 -62 154 c-34 85 -98 262
-142 394 l-80 240 3 160 c2 88 0 183 -5 210 -6 28 -12 90 -15 139 -2 49 -11
119 -20 155 -9 36 -17 73 -19 81 -79 336 -202 715 -288 885 -29 59 -94 160
-119 186 -7 8 -25 30 -40 51 -15 20 -34 42 -41 50 -7 7 -31 38 -54 68 -43 60
-106 120 -126 121 -7 0 -21 3 -32 5 -36 9 -150 12 -175 4z m-4652 -2805 c-3
-3 -9 2 -12 12 -6 14 -5 15 5 6 7 -7 10 -15 7 -18z m52 -26 c0 -5 4 -8 9 -5 5
3 15 -2 22 -12 13 -15 12 -16 -3 -4 -11 9 -18 10 -23 2 -5 -8 -11 -8 -21 1 -7
6 -11 15 -8 20 7 12 24 11 24 -2z m170 -123 c0 -2 -7 -7 -16 -10 -8 -3 -12 -2
-9 4 6 10 25 14 25 6z m100 -50 c0 -1 -9 -2 -20 -2 -10 0 -17 2 -15 5 3 2 -1
11 -8 19 -9 11 -4 11 16 -2 15 -10 27 -19 27 -20z m5967 -171 c0 -8 -4 -12 -9
-9 -5 3 -6 10 -3 15 9 13 12 11 12 -6z m-5817 -1 c0 -8 -19 -13 -24 -6 -3 5 1
9 9 9 8 0 15 -2 15 -3z m5550 -19 c-15 -18 1 -20 18 -3 9 9 12 9 12 0 0 -7 -5
-12 -11 -12 -5 0 -7 -5 -3 -11 4 -8 0 -8 -15 0 -12 7 -25 10 -30 7 -4 -3 -8 1
-8 8 0 8 6 12 13 9 6 -2 15 0 19 6 3 6 9 11 12 11 3 0 0 -7 -7 -15z m-50 -5
c0 -5 -5 -10 -11 -10 -5 0 -7 5 -4 10 3 6 8 10 11 10 2 0 4 -4 4 -10z m-5520
-10 c0 -5 -5 -10 -11 -10 -5 0 -7 5 -4 10 3 6 8 10 11 10 2 0 4 -4 4 -10z m35
-70 c3 -5 1 -10 -4 -10 -6 0 -11 5 -11 10 0 6 2 10 4 10 3 0 8 -4 11 -10z
m-15 -36 c6 -14 14 -23 19 -19 5 3 12 1 15 -4 7 -10 -9 -9 -36 4 -10 4 -15 11
-12 16 3 5 0 9 -6 9 -6 0 -8 5 -5 10 10 15 15 12 25 -16z m-80 -288 c0 -15
-24 -28 -34 -19 -7 7 13 33 25 33 5 0 9 -6 9 -14z m-365 -6 c3 -6 -1 -7 -9 -4
-18 7 -21 14 -7 14 6 0 13 -4 16 -10z m139 -585 c-4 -8 -11 -15 -16 -15 -6 0
-5 6 2 15 7 8 14 15 16 15 2 0 1 -7 -2 -15z m-3 -102 c-12 -20 -14 -14 -5 12
4 9 9 14 11 11 3 -2 0 -13 -6 -23z m6 -58 c0 -8 -4 -15 -9 -15 -10 0 -11 14
-1 23 9 10 10 9 10 -8z m-14 -239 c3 -8 0 -16 -6 -19 -7 -3 -13 3 -13 14 0 22
12 25 19 5z m3796 -84 c-1 -15 -2 -15 -6 1 -2 9 -9 14 -15 11 -7 -4 -8 -2 -4
5 10 15 26 4 25 -17z m81 18 c0 -5 -5 -10 -11 -10 -5 0 -7 5 -4 10 3 6 8 10
11 10 2 0 4 -4 4 -10z m2100 -11 c0 -5 -4 -8 -9 -5 -5 4 -11 0 -14 -6 -2 -7
-8 -9 -13 -5 -5 4 -2 12 6 17 20 13 30 12 30 -1z m50 -10 c0 -5 -4 -9 -8 -9
-5 0 -9 7 -9 15 0 8 4 12 9 9 4 -3 8 -9 8 -15z m106 9 c3 -4 -1 -5 -10 -4 -8
1 -18 5 -22 8 -3 4 1 5 10 4 8 -1 18 -5 22 -8z m47 5 c-7 -2 -19 -2 -25 0 -7
3 -2 5 12 5 14 0 19 -2 13 -5z m-2329 -10 c11 -11 30 -10 39 2 5 6 7 4 4 -5
-4 -17 -26 -21 -44 -7 -7 5 -18 5 -24 1 -8 -4 -9 -3 -5 4 8 14 19 15 30 5z
m526 -3 c0 -5 -5 -10 -11 -10 -5 0 -7 5 -4 10 3 6 8 10 11 10 2 0 4 -4 4 -10z
m1710 0 c0 -5 -4 -10 -10 -10 -5 0 -10 5 -10 10 0 6 5 10 10 10 6 0 10 -4 10
-10z m138 -10 c-7 -11 -18 -22 -26 -25 -8 -3 -6 4 5 20 21 29 38 34 21 5z
m-808 -5 c0 -7 -30 -13 -34 -7 -3 4 4 9 15 9 10 1 19 0 19 -2z m400 1 c0 -2
-7 -7 -16 -10 -8 -3 -12 -2 -9 4 6 10 25 14 25 6z m164 -10 c-10 -8 -21 -12
-24 -10 -5 6 21 24 34 24 6 0 1 -6 -10 -14z m76 5 c0 -5 -7 -11 -14 -14 -10
-4 -13 -1 -9 9 6 15 23 19 23 5z m90 -1 c0 -5 -2 -10 -4 -10 -3 0 -8 5 -11 10
-3 6 -1 10 4 10 6 0 11 -4 11 -10z m-4116 -25 c3 -8 1 -15 -4 -15 -6 0 -10 7
-10 15 0 8 2 15 4 15 2 0 6 -7 10 -15z m3346 5 c0 -5 -2 -10 -4 -10 -3 0 -8 5
-11 10 -3 6 -1 10 4 10 6 0 11 -4 11 -10z m-3480 -20 c0 -16 -17 -20 -28 -7
-8 10 -6 13 9 14 10 1 19 -2 19 -7z m-285 -10 c3 -6 -1 -7 -9 -4 -18 7 -21 14
-7 14 6 0 13 -4 16 -10z m-470 -10 c-3 -5 -12 -10 -18 -10 -7 0 -6 4 3 10 19
12 23 12 15 0z m170 1 c-3 -5 -1 -12 4 -16 5 -3 14 2 19 11 8 15 10 15 15 0 4
-9 3 -15 -1 -15 -4 1 -9 0 -12 -1 -24 -9 -38 -6 -35 9 5 22 4 21 11 21 3 0 3
-4 -1 -9z m195 3 c0 -8 -19 -13 -24 -6 -3 5 1 9 9 9 8 0 15 -2 15 -3z m170 2
c0 -2 -7 -7 -16 -10 -8 -3 -12 -2 -9 4 6 10 25 14 25 6z m100 0 c0 -3 -4 -8
-10 -11 -5 -3 -10 -1 -10 4 0 6 5 11 10 11 6 0 10 -2 10 -4z m1113 -13 c-3 -7
-6 -13 -8 -13 -2 0 -5 6 -8 13 -3 8 1 14 8 14 7 0 11 -6 8 -14z m-2952 -10
c13 -16 12 -17 -3 -4 -10 7 -18 15 -18 17 0 8 8 3 21 -13z m84 -3 c3 -6 -1 -7
-9 -4 -18 7 -21 14 -7 14 6 0 13 -4 16 -10z m911 -8 c-10 -2 -22 0 -28 6 -6 6
0 7 19 4 21 -5 23 -7 9 -10z m1984 8 c5 9 9 9 14 1 4 -6 2 -11 -4 -11 -6 0 -8
-5 -5 -10 5 -8 12 -7 23 2 15 12 16 11 3 -5 -13 -16 -15 -16 -32 -1 -11 10
-19 22 -18 28 0 6 3 5 6 -3 4 -10 7 -10 13 -1z m-2020 -23 c0 -6 -3 -7 -7 -4
-3 4 -11 3 -17 -3 -8 -6 -12 -3 -12 9 0 12 6 17 18 13 10 -2 18 -9 18 -15z
m127 1 c-3 -8 -6 -5 -6 6 -1 11 2 17 5 13 3 -3 4 -12 1 -19z m-989 -14 c-14
-14 -16 -14 -21 0 -4 10 -1 13 9 9 7 -3 14 1 14 8 0 7 3 9 7 5 4 -3 0 -13 -9
-22z m62 16 c0 -5 -5 -10 -11 -10 -5 0 -7 5 -4 10 3 6 8 10 11 10 2 0 4 -4 4
-10z m43 0 c3 6 5 6 3 -1 -3 -17 -33 -20 -33 -3 0 10 4 11 13 3 8 -7 14 -6 17
1z m4729 -62 c-6 -6 -12 -6 -17 3 -5 8 -4 10 3 5 7 -4 12 0 13 11 0 12 2 13 6
5 3 -8 1 -18 -5 -24z m-67 2 c3 -6 -1 -7 -9 -4 -18 7 -21 14 -7 14 6 0 13 -4
16 -10z m-132 -23 c3 -8 -1 -14 -8 -14 -7 0 -11 6 -8 14 3 7 6 13 8 13 2 0 5
-6 8 -13z m367 3 c0 -5 -5 -10 -11 -10 -5 0 -7 5 -4 10 3 6 8 10 11 10 2 0 4
-4 4 -10z m115 -23 c1 -7 7 -11 14 -9 7 1 10 -2 6 -8 -4 -6 -15 -4 -31 6 -28
19 -31 26 -6 17 15 -6 16 -5 2 13 -12 17 -12 17 0 6 8 -7 15 -18 15 -25z
m-2085 -19 c0 -6 -6 -5 -15 2 -8 7 -15 14 -15 16 0 2 7 1 15 -2 8 -4 15 -11
15 -16z m40 -18 c-18 -12 -30 -13 -30 -2 0 4 10 9 22 9 18 2 20 0 8 -7z m270
0 c0 -5 -3 -10 -7 -11 -5 0 -16 -2 -26 -4 -9 -2 -15 1 -11 6 3 5 10 7 15 4 5
-4 9 -1 9 4 0 6 5 11 10 11 6 0 10 -4 10 -10z m-230 -20 c-6 -11 -16 -20 -23
-20 -7 0 -6 4 3 10 8 5 11 10 5 10 -5 0 -3 5 5 10 21 14 22 13 10 -10z"/>
<path d="M770 4480 c0 -5 5 -10 11 -10 5 0 7 5 4 10 -3 6 -8 10 -11 10 -2 0
-4 -4 -4 -10z"/>
<path d="M745 4459 c-4 -6 -4 -13 -1 -16 3 -4 6 -1 6 6 0 7 5 9 12 5 7 -4 8
-3 4 4 -9 15 -13 15 -21 1z"/>
<path d="M636 4228 c3 -5 10 -6 15 -3 13 9 11 12 -6 12 -8 0 -12 -4 -9 -9z"/>
<path d="M120 3050 c-9 -6 -10 -10 -3 -10 6 0 15 5 18 10 8 12 4 12 -15 0z"/>
<path d="M290 2920 c0 -5 5 -10 11 -10 5 0 7 5 4 10 -3 6 -8 10 -11 10 -2 0
-4 -4 -4 -10z"/>
<path d="M376 2907 c3 -10 9 -15 12 -12 3 3 0 11 -7 18 -10 9 -11 8 -5 -6z"/>
<path d="M419 2888 c0 -2 -2 -11 -4 -21 -3 -15 -1 -16 11 -6 7 6 11 15 8 20
-5 9 -13 12 -15 7z"/>
<path d="M435 2849 c-4 -6 -4 -13 -1 -16 3 -3 1 -14 -5 -25 -10 -18 -9 -18 11
-8 17 9 19 14 10 25 -7 8 -9 19 -5 25 3 5 4 10 1 10 -3 0 -8 -5 -11 -11z"/>
<path d="M6141 2711 c-9 -6 -10 -11 -2 -15 6 -4 11 -2 11 5 0 8 5 7 18 -2 15
-13 16 -12 3 4 -7 9 -14 17 -15 17 0 0 -7 -4 -15 -9z"/>
<path d="M295 2329 c-4 -6 -5 -12 -2 -15 2 -3 7 2 10 11 7 17 1 20 -8 4z"/>
<path d="M104 2309 c-3 -6 -2 -15 3 -20 5 -5 9 -1 10 11 2 22 -2 25 -13 9z"/>
<path d="M171 2304 c0 -11 3 -14 6 -6 3 7 2 16 -1 19 -3 4 -6 -2 -5 -13z"/>
<path d="M308 2113 c7 -3 16 -2 19 1 4 3 -2 6 -13 5 -11 0 -14 -3 -6 -6z"/>
<path d="M273 2035 c0 -8 4 -12 9 -9 5 3 6 10 3 15 -9 13 -12 11 -12 -6z"/>
<path d="M190 1861 c0 -6 4 -12 8 -15 5 -3 9 1 9 9 0 8 -4 15 -9 15 -4 0 -8
-4 -8 -9z"/>
<path d="M156 1753 c-6 -14 -5 -15 5 -6 7 7 10 15 7 18 -3 3 -9 -2 -12 -12z"/>
<path d="M156 1668 c3 -5 10 -6 15 -3 13 9 11 12 -6 12 -8 0 -12 -4 -9 -9z"/>
<path d="M159 1622 c12 -8 11 -11 -3 -15 -15 -4 -15 -5 1 -3 19 1 21 19 1 24
-10 3 -10 1 1 -6z"/>
<path d="M154 1539 c-3 -6 -2 -15 4 -21 6 -6 12 -6 16 1 4 6 2 11 -4 11 -6 0
-8 5 -5 10 3 6 4 10 1 10 -3 0 -8 -5 -12 -11z"/>
<path d="M150 1416 c0 -2 7 -7 16 -10 8 -3 12 -2 9 4 -6 10 -25 14 -25 6z"/>
<path d="M4134 1248 c-10 -16 4 -22 21 -8 10 8 15 9 15 1 0 -6 5 -11 12 -11 9
0 9 3 0 12 -15 15 -40 19 -48 6z"/>
<path d="M4447 1243 c3 -7 6 -13 8 -13 2 0 5 6 8 13 3 8 -1 14 -8 14 -7 0 -11
-6 -8 -14z"/>
<path d="M3902 1224 c10 -10 20 -16 22 -13 3 3 -5 11 -17 18 -21 13 -21 12 -5
-5z"/>
<path d="M2915 1220 c-3 -5 -1 -10 4 -10 6 0 11 5 11 10 0 6 -2 10 -4 10 -3 0
-8 -4 -11 -10z"/>
<path d="M5741 1214 c0 -11 3 -14 6 -6 3 7 2 16 -1 19 -3 4 -6 -2 -5 -13z"/>
<path d="M5777 1219 c7 -7 15 -10 18 -7 3 3 -2 9 -12 12 -14 6 -15 5 -6 -5z"/>
<path d="M5876 1213 c-6 -14 -5 -15 5 -6 7 7 10 15 7 18 -3 3 -9 -2 -12 -12z"/>
<path d="M6260 1221 c0 -9 30 -24 36 -18 2 1 -6 8 -16 15 -11 7 -20 8 -20 3z"/>
<path d="M2336 1212 c-9 -16 7 -22 47 -19 26 3 37 -1 40 -12 4 -13 5 -13 6 2
0 9 6 17 12 17 6 0 8 -7 4 -17 -4 -13 -3 -15 5 -7 14 14 2 46 -14 37 -19 -13
-46 -13 -46 -2 0 8 -5 7 -16 -2 -13 -10 -17 -10 -24 0 -5 9 -10 10 -14 3z"/>
<path d="M5596 1207 c-16 -12 -16 -14 -3 -14 9 0 18 6 21 14 3 7 4 13 3 13 -2
0 -11 -6 -21 -13z"/>
<path d="M2736 1194 c-3 -7 5 -9 20 -6 13 2 24 7 24 11 0 11 -39 7 -44 -5z"/>
<path d="M5896 1202 c-3 -5 1 -9 9 -9 8 0 12 4 9 9 -3 4 -7 8 -9 8 -2 0 -6 -4
-9 -8z"/>
<path d="M5975 1200 c3 -5 8 -10 11 -10 2 0 4 5 4 10 0 6 -5 10 -11 10 -5 0
-7 -4 -4 -10z"/>
<path d="M2615 1191 c-3 -5 -2 -12 3 -15 5 -3 9 1 9 9 0 17 -3 19 -12 6z"/>
<path d="M4690 1186 c0 -20 13 -27 29 -16 11 6 9 10 -8 19 -17 10 -21 9 -21
-3z"/>
<path d="M1710 1158 c0 -4 4 -8 9 -8 6 0 12 4 15 8 3 5 -1 9 -9 9 -8 0 -15 -4
-15 -9z"/>
<path d="M1331 1134 c0 -11 3 -14 6 -6 3 7 2 16 -1 19 -3 4 -6 -2 -5 -13z"/>
<path d="M1406 1139 c2 -4 -2 -10 -8 -12 -9 -4 -10 -6 -1 -6 6 -1 15 4 18 9 5
8 11 8 19 1 9 -8 13 -7 13 2 0 7 -11 13 -23 13 -12 0 -21 -3 -18 -7z"/>
<path d="M1678 1143 c7 -3 16 -2 19 1 4 3 -2 6 -13 5 -11 0 -14 -3 -6 -6z"/>
<path d="M1770 1146 c0 -2 7 -7 16 -10 8 -3 12 -2 9 4 -6 10 -25 14 -25 6z"/>
<path d="M537 1133 c-11 -17 13 -28 26 -13 9 10 9 11 0 6 -6 -3 -13 -1 -15 6
-3 9 -6 9 -11 1z"/>
<path d="M963 1133 c-7 -3 -13 -9 -13 -15 0 -7 5 -6 14 1 11 10 17 8 25 -6 9
-17 10 -16 8 3 -1 20 -10 25 -34 17z"/>
<path d="M390 1118 c0 -5 6 -8 13 -5 6 2 18 -3 25 -12 12 -14 12 -14 4 3 -10
21 -42 31 -42 14z"/>
<path d="M470 1121 c0 -6 4 -13 10 -16 6 -3 7 1 4 9 -7 18 -14 21 -14 7z"/>
<path d="M502 1116 c10 -7 16 -15 13 -18 -3 -2 2 -5 10 -5 13 0 13 3 -2 19 -9
10 -21 18 -27 18 -6 0 -3 -7 6 -14z"/>
<path d="M1010 1120 c0 -5 5 -10 11 -10 5 0 7 5 4 10 -3 6 -8 10 -11 10 -2 0
-4 -4 -4 -10z"/>
<path d="M3145 1109 c-4 -6 -4 -13 -1 -16 3 -4 6 -1 6 6 0 7 4 10 9 6 5 -3 12
-1 16 5 3 5 -1 10 -9 10 -8 0 -18 -5 -21 -11z"/>
<path d="M40 1099 c0 -5 5 -7 10 -4 6 3 10 8 10 11 0 2 -4 4 -10 4 -5 0 -10
-5 -10 -11z"/>
<path d="M4750 1100 c0 -5 6 -9 13 -7 6 1 11 -6 11 -15 -1 -11 4 -14 14 -11
11 5 13 3 7 -7 -6 -9 -4 -11 4 -5 9 5 7 13 -10 31 -24 25 -39 31 -39 14z"/>
<path d="M3181 1061 c-10 -7 -7 -9 12 -8 14 1 23 5 20 10 -6 9 -15 9 -32 -2z"/>
<path d="M4941 1051 c-9 -6 -10 -11 -2 -15 13 -8 31 1 31 15 0 11 -11 11 -29
0z"/>
<path d="M3195 1030 c-3 -5 -1 -10 4 -10 6 0 11 5 11 10 0 6 -2 10 -4 10 -3 0
-8 -4 -11 -10z"/>
<path d="M4910 1026 c0 -2 7 -7 16 -10 8 -3 12 -2 9 4 -6 10 -25 14 -25 6z"/>
<path d="M5262 1021 c-11 -7 -11 -9 1 -14 16 -6 27 0 27 15 0 10 -11 10 -28
-1z"/>
<path d="M3627 1003 c4 -11 8 -12 13 -3 6 9 9 9 13 1 4 -8 5 -8 3 0 -1 7 -9
13 -18 15 -11 1 -15 -3 -11 -13z"/>
<path d="M3430 981 c0 -7 -4 -9 -10 -6 -6 4 -7 -1 -3 -11 6 -15 7 -15 15 1 6
9 7 19 4 22 -3 4 -6 1 -6 -6z"/>
<path d="M3455 980 c-3 -5 -1 -10 4 -10 6 0 11 5 11 10 0 6 -2 10 -4 10 -3 0
-8 -4 -11 -10z"/>
<path d="M3389 967 c6 -8 7 -18 3 -22 -4 -5 -1 -5 6 -1 10 6 10 11 1 22 -6 8
-14 14 -16 14 -3 0 0 -6 6 -13z"/>
</g>
</svg>
